HIERARCHY
ROOT Hips
{
  OFFSET 9.33506 97.6794 116.859
  CHANNELS 6 Xposition Yposition Zposition Zrotation Xrotation Yrotation
  JOINT RightUpLeg
  {
    OFFSET -8.9458 -8.66707 0.101652
    CHANNELS 3 Zrotation Xrotation Yrotation
    JOINT RightLeg
    {
      OFFSET 0 -44.4227 1.3727
      CHANNELS 3 Zrotation Xrotation Yrotation
      JOINT RightFoot
      {
        OFFSET 0.253549 -42.0924 -1.46059
        CHANNELS 3 Zrotation Xrotation Yrotation
        JOINT RightToes
        {
          OFFSET 0.04 -4.41509 8.4991
          CHANNELS 3 Zrotation Xrotation Yrotation
          End Site
          {
            OFFSET -0.08 -0.137448 9.77979
          }
        }
      }
    }
  }
  JOINT Spine
  {
    OFFSET 0 11.8905 0
    CHANNELS 3 Zrotation Xrotation Yrotation
    JOINT Spine1
    {
      OFFSET 0 25.6574 0.127663
      CHANNELS 3 Zrotation Xrotation Yrotation
      JOINT HEad
      {
        OFFSET 0 8.73416 0.011341
        CHANNELS 3 Zrotation Xrotation Yrotation
        End Site
        {
          OFFSET -0.29 12.7742 2.51395
        }
      }
      JOINT LeftShoulder1
      {
        OFFSET 8.99 -0.362252 -0.22
        CHANNELS 3 Zrotation Xrotation Yrotation
        JOINT LeftArm
        {
          OFFSET 10.2827 -0.00338 0.322123
          CHANNELS 3 Zrotation Xrotation Yrotation
          JOINT LeftForeArm
          {
            OFFSET 32.7669 0.099144 -1.42434
            CHANNELS 3 Zrotation Xrotation Yrotation
            JOINT LeftHand
            {
              OFFSET 27.5643 0.085362 1.02216
              CHANNELS 3 Zrotation Xrotation Yrotation
              End Site
              {
                OFFSET 16.7443 -0.6 1.50291
              }
            }
          }
        }
      }
      JOINT RightShoulder
      {
        OFFSET -8.99 -0.362252 -0.22
        CHANNELS 3 Zrotation Xrotation Yrotation
        JOINT RightArm
        {
          OFFSET -10.2827 -0.00338 0.322123
          CHANNELS 3 Zrotation Xrotation Yrotation
          JOINT RightForeArm
          {
            OFFSET -32.8971 0.099144 -1.42434
            CHANNELS 3 Zrotation Xrotation Yrotation
            JOINT RightHand
            {
              OFFSET -27.4921 0.085362 1.02216
              CHANNELS 3 Zrotation Xrotation Yrotation
              End Site
              {
                OFFSET -16.6312 -0.6 1.50291
              }
            }
          }
        }
      }
    }
  }
  JOINT LeftUpLeg
  {
    OFFSET 8.9458 -8.66707 0.101652
    CHANNELS 3 Zrotation Xrotation Yrotation
    JOINT LeftLeg
    {
      OFFSET 0 -44.4227 1.3727
      CHANNELS 3 Zrotation Xrotation Yrotation
      JOINT LeftFoot
      {
        OFFSET -0.253549 -42.0924 -1.46059
        CHANNELS 3 Zrotation Xrotation Yrotation
        JOINT LeftToes
        {
          OFFSET -0.04 -4.41509 8.4991
          CHANNELS 3 Zrotation Xrotation Yrotation
          End Site
          {
            OFFSET 0.08 -0.047448 9.77979
          }
        }
      }
    }
  }
}
MOTION
Frames:	12
Frame Time:	0.0166667
7.10029 98.3955 -54.8208 -4.10446 2.49779 -174.048 0.946164 -26.7365 8.17877 6.28409 33.7896 -14.233 0.412711 -11.4569 -0.179848 -14.654 20.0871 52.0943 -4.57441 1.87262 1.91328 7.86668 23.3906 -1.75235 7.82465 -10.9987 -9.04674 -3.97569e-016 -3.18055e-015 -7.95139e-016 -97.4024 -11.6104 -28.2815 -24.4159 14.2751 -13.6412 0.368473 9.90896 -0.00117926 -2.89935 -0.31272 -8.79692 83.3349 -2.53561 17.4536 23.5829 16.4768 37.4454 -0.369625 9.91382 0.00119885 -1.40545 -6.93969 11.1305 -0.0796029 57.0635 11.8298 -8.55632 -3.30264 0.119425 -9.54887 5.40174 6.87827 
7.35382 98.4874 -56.5104 -3.77539 2.36603 -174.002 1.36359 -26.044 7.80166 6.66902 34.2113 -13.8131 0.0211061 -12.0764 -0.209121 -16.5328 22.2519 54.4811 -4.20778 1.96399 1.92908 7.96152 23.4511 -1.75917 7.82313 -10.9532 -8.89149 -3.97569e-016 0 1.59028e-015 -97.3954 -12.8806 -27.4296 -24.1219 14.4835 -14.7307 0.368473 9.90896 -0.00117926 -3.01101 -0.310276 -8.8426 82.7477 -1.52214 17.5552 23.9733 16.3375 36.9428 -0.369625 9.91382 0.00119885 -0.830689 -8.5289 9.11387 -1.11072 59.1907 12.6429 -8.71154 -0.527738 0.315957 -8.42837 3.83483 5.88817 
7.58837 98.6208 -58.1255 -3.33934 2.22055 -173.922 1.92441 -25.2843 7.24663 6.98188 34.4013 -12.6902 -1.20968 -12.6966 -0.309223 -16.8817 21.1617 57.0859 -3.8096 2.0562 1.94889 8.10882 23.4633 -1.77191 8.05144 -10.9635 -8.62855 2.38542e-015 3.18055e-015 2.38542e-015 -97.3681 -13.9767 -26.5279 -23.8939 14.7251 -15.9796 0.368473 9.90896 -0.00117926 -2.95994 -0.302676 -8.67937 82.1619 -1.10607 17.6422 24.2884 16.1928 36.1848 -0.369625 9.91382 0.00119885 -0.249378 -10.3993 7.03875 -2.72273 61.5772 14.4336 -8.7123 0.399439 0.383458 -6.83715 2.50643 4.66639 
7.77167 98.7481 -59.6545 -2.97432 2.02353 -173.909 2.37803 -24.5989 6.65343 7.1487 34.5482 -11.6896 -2.10964 -13.3086 -0.384684 -17.0956 20.6127 58.4869 -3.45448 2.14106 1.94658 8.16874 23.4792 -1.76886 8.29586 -10.9878 -8.33522 -3.97569e-016 6.36111e-015 7.95139e-016 -97.3474 -15.0377 -25.624 -23.7055 14.9846 -17.3367 0.368473 9.90896 -0.00117926 -2.95094 -0.287177 -8.40134 81.6926 -0.896478 17.8016 24.5643 16.0417 35.2841 -0.369625 9.91382 0.00119885 0.103843 -12.5059 5.15409 -4.59534 63.7788 16.8402 -8.6082 0.245148 0.368602 -5.21628 1.60155 3.48518 
7.85289 98.8023 -61.0596 -2.90348 1.70943 -174.129 2.42625 -24.2286 6.12465 6.96189 34.9875 -11.7843 -1.21611 -14.0127 -0.314287 -18.7724 24.8165 56.6331 -3.24637 2.20927 1.88461 7.93454 23.56 -1.71808 8.37972 -10.9848 -8.09115 1.19271e-015 3.18055e-015 -1.59028e-015 -97.3976 -16.2716 -24.7606 -23.5259 15.2601 -18.7864 0.368473 9.90896 -0.00117926 -3.22063 -0.255628 -8.03872 81.5141 -0.575456 18.1892 24.8118 15.8875 34.317 -0.369625 9.91382 0.00119885 0.0749828 -14.8781 3.99702 -5.97979 65.4371 19.3671 -8.28376 -0.629851 0.296265 -4.09295 1.47013 2.74684 
7.90604 98.854 -62.3974 -2.91771 1.40994 -174.357 2.35184 -23.852 5.5909 6.70885 35.382 -12.0377 -0.0741615 -14.6436 -0.22366 -20.3676 30.0455 54.4326 -3.03569 2.27418 1.79833 7.60423 23.726 -1.65176 8.44796 -10.9649 -7.85327 -7.95139e-016 -1.27222e-014 -1.59028e-015 -97.4012 -17.3721 -24.0057 -23.394 15.5096 -20.1412 0.368473 9.90896 -0.00117926 -3.58421 -0.21928 -7.63482 81.5796 -0.353275 18.5987 25.0098 15.7356 33.3098 -0.369625 9.91382 0.00119885 -0.100754 -17.2991 3.1353 -7.08004 66.5475 21.6015 -7.92247 -1.85458 0.199882 -3.09718 1.74581 2.15723 
8.00924 98.9626 -63.7172 -2.83447 1.2612 -174.375 2.40757 -23.1672 4.97718 6.60963 35.4363 -11.6297 -0.0232443 -14.9805 -0.221688 -21.4178 32.8035 53.8023 -2.67187 2.35057 1.7149 7.34216 24.0212 -1.59774 8.63589 -10.9066 -7.59966 7.95139e-016 6.36111e-015 1.59028e-015 -97.2435 -18.0151 -23.4507 -23.3754 15.6955 -21.1742 0.368473 9.90896 -0.00117926 -3.93106 -0.18653 -7.22534 81.9439 -0.368734 18.8146 25.1376 15.5956 32.3139 -0.369625 9.91382 0.00119885 -0.225599 -19.5366 2.2781 -7.60662 66.9766 22.5667 -7.6788 -2.79791 0.132097 -2.10454 2.15476 1.57922 
8.09932 99.0941 -65.0022 -2.77892 1.18642 -174.332 2.43633 -22.3507 4.42776 6.59671 35.3507 -11.1419 -0.236938 -15.2894 -0.241837 -22.1923 34.3966 53.7119 -2.26226 2.42483 1.62133 7.04205 24.4348 -1.53697 8.7953 -10.8637 -7.34664 3.97569e-016 0 7.95139e-016 -97.056 -18.4361 -23.0607 -23.3959 15.8361 -21.9787 0.368473 9.90896 -0.00117926 -4.2739 -0.158023 -6.86323 82.4995 -0.51111 19.0194 25.2112 15.469 31.3286 -0.369625 9.91382 0.00119885 -0.443126 -21.659 1.51318 -7.73502 66.8856 22.9392 -7.50938 -3.87945 0.0596244 -1.00555 2.75936 0.951582 
8.1324 99.2408 -66.2412 -2.83173 1.15678 -174.288 2.31706 -21.4735 4.12161 6.74976 35.2151 -10.9963 -0.27472 -15.8724 -0.249171 -22.4741 34.7079 54.0109 -1.84949 2.48808 1.50812 6.62537 25.0162 -1.45546 8.80423 -10.9241 -7.11912 -8.82781e-032 -6.36111e-015 -7.95139e-016 -96.9395 -18.7542 -22.891 -23.3825 15.9257 -22.5259 0.368473 9.90896 -0.00117926 -4.56753 -0.139413 -6.64579 83.1767 -0.759251 19.3622 25.2194 15.3662 30.3689 -0.369625 9.91382 0.00119885 -0.883385 -23.675 0.801399 -7.74438 66.3798 23.2592 -7.43277 -5.4495 -0.0420166 0.537454 3.46173 0.0425779 
8.12875 99.3826 -67.4656 -2.94995 1.1638 -174.288 2.14653 -20.5596 3.8593 6.84619 35.0776 -10.8527 -0.313418 -16.4007 -0.256693 -22.7836 34.9763 54.3481 -1.47742 2.54088 1.39189 6.17126 25.6287 -1.36522 8.72304 -10.9642 -6.86861 -0 -3.18055e-015 -0 -96.8278 -19.0122 -22.7676 -23.3871 15.9904 -22.9576 0.368473 9.90896 -0.00117926 -4.87428 -0.124179 -6.47564 83.9128 -0.984561 19.729 25.2256 15.2726 29.4388 -0.369625 9.91382 0.00119885 -1.39837 -25.5345 0.238825 -7.6263 65.3934 23.528 -7.42887 -7.08482 -0.147369 1.98108 4.46698 -0.775517 
8.09266 99.4883 -68.7075 -3.13832 1.20133 -174.426 1.99442 -19.6494 3.45092 6.58918 35.0336 -10.4418 -0.386297 -16.5324 -0.265126 -23.8088 37.1053 54.2186 -1.2258 2.58018 1.2865 5.72841 26.1609 -1.27314 8.52987 -10.8691 -6.54179 -7.95139e-016 -3.18055e-015 -0 -96.6708 -19.3005 -22.5281 -23.4448 16.0548 -23.4435 0.368473 9.90896 -0.00117926 -5.28526 -0.106321 -6.28321 84.6389 -0.988979 20.0574 25.3048 15.1782 28.5673 -0.369625 9.91382 0.00119885 -1.86145 -27.1871 -0.0553415 -7.4773 63.8849 24.0691 -7.54163 -8.36551 -0.235298 2.62853 6.28846 -1.01835 
8.02823 99.5829 -69.9541 -3.3339 1.23352 -174.616 1.85531 -18.7575 3.05855 6.28253 35.0231 -9.97204 -0.483107 -16.6087 -0.276133 -24.8523 39.1348 54.3136 -1.03 2.60786 1.19081 5.31426 26.587 -1.18191 8.34117 -10.6999 -6.1796 -1.19271e-015 0 -1.59028e-015 -96.4971 -19.6005 -22.1887 -23.5205 16.1051 -23.8748 0.368473 9.90896 -0.00117926 -5.66976 -0.0898087 -6.08231 85.2868 -0.96598 20.3388 25.4069 15.0781 27.6956 -0.369625 9.91382 0.00119885 -2.28677 -28.6483 -0.159633 -7.19899 61.8851 24.4291 -7.58043 -9.63186 -0.31581 3.2118 7.9075 -1.25228 
